# xmcd
#
# Track frame offsets: 
#        150
#        13127
#        19502
#        32386
#        46941
#        61187
#        82621
#        96894
#        117916
#        136399
#        150495
#        175587
#
# Disc length: 2618 seconds
#
# Revision: 0
# Processed by: cddbd v1.5.2PL0 Copyright (c) Steve Scherf et al.
# Submitted via: ExactAudioCopy v0.99pb5
#
DISCID=7d0a380c
DTITLE=Taivastelutaajuus - Vuosia...
DYEAR=2007
DGENRE=Hip-Hop
TTITLE0=Ulkona Biisi
TTITLE1=Saamaton Skit
TTITLE2=Saamaton
TTITLE3=Fiilistellen
TTITLE4=H‰my Meininki
TTITLE5=Kolot Syd‰mmis
TTITLE6=Vuosia
TTITLE7=Ratoja
TTITLE8=Piirr‰n Kielell‰ Kuvia Sun Mieleen (feat. Sensi Hensi)
TTITLE9=T‰ll‰st T‰n‰‰
TTITLE10=Posse Biisi (feat. Mikko P, Sensi Hensi, Tono Slono and Atomi)
TTITLE11=T‰‰ Vaa Jatkuu...
EXTD=
EXTT0=
EXTT1=
EXTT2=
EXTT3=
EXTT4=
EXTT5=
EXTT6=
EXTT7=
EXTT8=
EXTT9=
EXTT10=
EXTT11=
PLAYORDER=
